<svg xmlns="http://www.w3.org/2000/svg" viewBox="0 0 520 420" fill="none">
  <!-- Roland Frunza, videography lockup. Wordmark set in Quicksand (SIL OFL), the closest open face to the original rounded geometric sans. -->
  <g stroke="currentColor" stroke-width="8" stroke-linecap="round" stroke-linejoin="round" transform="translate(0,10)">
    <path d="M20,181 C60,194 110,203 155,203 C195,226 240,233 285,227 C365,216 432,167 470,103 C484,77 494,47 500,23 C470,50 420,67 385,80 C330,93 270,105 240,113 C205,122 180,140 168,160 C158,177 154,191 155,203"/>
    <path d="M166,204 C205,196 255,184 300,165 C308,161 314,158 320,155"/>
  </g>
  <text x="260" y="330" text-anchor="middle" fill="currentColor" font-family="Quicksand, 'Varela Round', 'Nunito', sans-serif" font-weight="600" font-size="92" letter-spacing="-1">roland frunza</text>
  <text x="260" y="395" text-anchor="middle" fill="currentColor" font-family="Quicksand, 'Varela Round', 'Nunito', sans-serif" font-weight="400" font-size="30" letter-spacing="13">videography</text>
</svg>
